<svg xmlns="http://www.w3.org/2000/svg" viewBox="0 0 64 64" width="64" height="64">
  <path d="M50.8 43.6L30.2 7.9l-.2-.3c-1-1.7-2.8-2.8-4.7-3.1L10.8 2.6c-1.6-.2-3.1.6-3.7 2.1L1.5 18.2c-.8 1.9-.6 3.9.4 5.6L22.7 60c1.7 2.8 5.4 3.9 8.3 2.3l2.7-1.6L48.5 52c3-1.8 4-5.4 2.3-8.4zM12.7 17.1c-1.1-1.9-.4-4.3 1.5-5.4s4.3-.4 5.4 1.5c1.1 1.9.4 4.3-1.5 5.4-1.9 1-4.3.4-5.4-1.5z" fill="#ccc"/>
  <path d="M55.9 36.1L28.5 5.2l-.3-.2C27 3.5 25 2.7 23 2.8L8.5 3.9C6.9 4 5.6 5.2 5.3 6.7L2.5 21c-.4 2 .2 4 1.5 5.4l27.6 31.2c2.2 2.5 6.1 2.8 8.5.6l2.3-2.1 12.9-11.5c2.6-2.2 2.8-6 .6-8.5zM13.3 17.7c-1.4-1.6-1.3-4.2.4-5.6s4.2-1.3 5.6.4c1.4 1.6 1.3 4.2-.4 5.6-1.7 1.4-4.2 1.3-5.6-.4z" fill="#E895B7"/>
  <path d="M60.2 24l-35-21.9-.4-.1c-1.7-1-3.8-1.2-5.6-.6L5.6 6.5c-1.5.6-2.5 2.1-2.3 3.7l1.4 14.5c.2 2 1.3 3.7 3 4.8L43 51.6c2.8 1.7 6.6.9 8.3-1.9l1.6-2.6L62 32.5c1.8-3 1-6.6-1.8-8.5zM14 18.5c-1.8-1.1-2.4-3.6-1.2-5.5s3.6-2.4 5.5-1.2c1.8 1.1 2.4 3.6 1.2 5.5-1.1 1.8-3.6 2.3-5.5 1.2z" fill="#1d83d4"/>
</svg>