<svg xmlns="http://www.w3.org/2000/svg" viewBox="0 0 64 64" width="64" height="64">
  <g stroke-width="2.35" stroke-miterlimit="10">
    <path fill="#E895B7" stroke="#aaa" d="M32.2 55.5V15.4c0-1.9-.9-3.7-2.4-4.8L18.7 2.2c-1.2-.9-2.9-.9-4.1 0L3.5 10.6c-1.5 1.1-2.4 2.9-2.4 4.8v40c0 3.2 2.6 5.8 5.8 5.8h19.6c3.1.1 5.7-2.5 5.7-5.7zM13.3 15.2c0-2.1 1.7-3.8 3.8-3.8 2.1 0 3.8 1.7 3.8 3.8 0 2.1-1.7 3.8-3.8 3.8-2.1-.1-3.8-1.8-3.8-3.8z"/>
    <path fill="#80E1E5" stroke="#888" d="M50.4 42.5L30.6 8.2l-.2-.3c-.9-1.6-2.6-2.7-4.5-3L12 3.1c-1.5-.2-3 .6-3.6 2.1L3.1 18.1c-.7 1.7-.6 3.7.3 5.4l20 34.7c1.6 2.8 5.1 3.7 7.9 2.1l2.6-1.5 14.4-8.3c2.8-1.7 3.7-5.2 2.1-8zM13.9 17.1c-1-1.8-.4-4.1 1.4-5.1 1.8-1 4.1-.4 5.1 1.4 1 1.8.4 4.1-1.4 5.1-1.8 1-4.1.4-5.1-1.4z"/>
    <path fill="#FFCA49" stroke="#666" d="M59.6 22.3L25.3 2.5l-.3-.2c-1.6-.9-3.6-1.1-5.4-.3L6.7 7.3c-1.4.6-2.3 2.1-2.1 3.6l1.8 13.9c.2 1.9 1.3 3.5 3 4.5l34.7 20c2.8 1.6 6.3.7 7.9-2.1l1.5-2.6 8.3-14.4c1.5-2.8.6-6.3-2.2-7.9zm-44.4-3.8c-1.8-1-2.4-3.3-1.4-5.1 1-1.8 3.3-2.4 5.1-1.4 1.8 1 2.4 3.3 1.4 5.1-1 1.8-3.3 2.5-5.1 1.4z"/>
  </g>
</svg>
