<svg xmlns="http://www.w3.org/2000/svg" viewBox="0 0 64 64" width="64" height="64">
  <path stroke-width="2.35" stroke-miterlimit="10" stroke="#000" fill="#FFCA49" d="M52 43.1L31 6.7l-.2-.3c-1-1.7-2.8-2.9-4.8-3.2L11.3 1.3c-1.6-.2-3.2.7-3.8 2.2L1.8 17.2c-.8 1.9-.6 4 .4 5.7l21.2 36.8c1.7 2.9 5.5 4 8.4 2.3l2.7-1.6 15.2-8.8c3-1.8 4-5.5 2.3-8.5zm-38.8-27c-1.1-1.9-.4-4.4 1.5-5.5 1.9-1.1 4.4-.4 5.5 1.5 1.1 1.9.4 4.4-1.5 5.5-1.9 1.1-4.4.4-5.5-1.5z"/>
  <g transform="scale(0.5) translate(64)"
    stroke-width=".5"><circle fill="#4caf50" cx="32" cy="32" r="32"/><path fill="#fff" d="M54.748 26.293c-.632-.633-1.4-.949-2.304-.949H38.352V11.252c0-.903-.316-1.671-.949-2.304C36.771 8.316 36.003 8 35.1 8h-6.503c-.903 0-1.671.316-2.303.948-.633.633-.949 1.4-.949 2.304v14.092H11.252c-.903 0-1.671.317-2.304.949-.632.632-.948 1.4-.948 2.303v6.505c0 .903.316 1.67.948 2.303.633.632 1.4.948 2.304.948h14.092v14.093c0 .903.316 1.672.948 2.304.633.632 1.4.948 2.304.948H35.1c.904 0 1.671-.316 2.304-.948.632-.633.948-1.4.948-2.304V38.352h14.092c.904 0 1.672-.316 2.304-.948.632-.632.948-1.4.948-2.303v-6.505c0-.903-.315-1.671-.948-2.303z"/></g>
</svg>
