<svg xmlns="http://www.w3.org/2000/svg" viewBox="0 0 64 64" width="64" height="64">
  <path d="M52 43.1L31 6.7l-.2-.3c-1-1.7-2.8-2.9-4.8-3.2L11.3 1.3c-1.6-.2-3.2.7-3.8 2.2L1.8 17.2c-.8 1.9-.6 4 .4 5.7l21.2 36.8c1.7 2.9 5.5 4 8.4 2.3l2.7-1.6 15.2-8.8c3-1.8 4-5.5 2.3-8.5zm-38.8-27c-1.1-1.9-.4-4.4 1.5-5.5s4.4-.4 5.5 1.5.4 4.4-1.5 5.5-4.4.4-5.5-1.5z" fill="#666"/>
  <g transform="matrix(.5 0 0 .5 32 0)">
    <circle cx="32" cy="32" r="32" fill="#4caf50"/>
    <path d="M54.7 26.3c-.6-.6-1.4-.9-2.3-.9h-14V11.3c0-.9-.3-1.7-.9-2.3-.7-.7-1.5-1-2.4-1h-6.5c-.9 0-1.7.3-2.3.9-.6.6-.9 1.4-.9 2.3v14.1H11.3c-.9 0-1.7.3-2.3.9-.7.7-1 1.5-1 2.4v6.5c0 .9.3 1.7.9 2.3.6.6 1.4.9 2.3.9h14.1v14.1c0 .9.3 1.7.9 2.3.6.6 1.4.9 2.3.9H35c.9 0 1.7-.3 2.3-.9.6-.6.9-1.4.9-2.3v-14h14.1c.9 0 1.7-.3 2.3-.9s.9-1.4.9-2.3v-6.5c.2-1-.1-1.8-.8-2.4z" fill="#fff"/>
  </g>
</svg>
